<svg width="80" height="80" viewBox="0 0 80 80" fill="none" xmlns="http://www.w3.org/2000/svg">
<path d="M70.4 48.6414C75.3485 31.6752 65.6063 13.9099 48.6401 8.96143C31.6739 4.01296 13.9085 13.7552 8.96 30.7214C4.01153 47.6876 13.7539 65.453 30.7201 70.4014C47.6863 75.3499 65.4515 65.6076 70.4 48.6414Z" fill="url(#paint0_linear_1462_14898)"/>
<path d="M45 27L49 31.7273L45 36.4545" stroke="white" stroke-width="3" stroke-linecap="round" stroke-linejoin="round"/>
<path d="M31 38.8175V36.4538C31 35.2001 31.4214 33.9977 32.1716 33.1111C32.9217 32.2246 33.9391 31.7266 35 31.7266H49" stroke="white" stroke-width="3" stroke-linecap="round" stroke-linejoin="round"/>
<path d="M35 53.0014L31 48.2741L35 43.5469" stroke="white" stroke-width="3" stroke-linecap="round" stroke-linejoin="round"/>
<path d="M49 41.1836V43.5472C49 44.801 48.5786 46.0034 47.8284 46.8899C47.0783 47.7765 46.0609 48.2745 45 48.2745H31" stroke="white" stroke-width="3" stroke-linecap="round" stroke-linejoin="round"/>
<defs>
<linearGradient id="paint0_linear_1462_14898" x1="0" y1="61.4414" x2="79.36" y2="17.9214" gradientUnits="userSpaceOnUse">
<stop stop-color="#E32068"/>
<stop offset="1" stop-color="#F5003B"/>
</linearGradient>
</defs>
</svg>
