<svg width="17" height="17" viewBox="0 0 17 17" fill="none" xmlns="http://www.w3.org/2000/svg">
<path d="M11.3008 5.26927L16.1808 5.99223C16.272 6.00507 16.3578 6.04336 16.4282 6.1029C16.4987 6.16245 16.551 6.24073 16.5792 6.32877C16.6074 6.41682 16.6103 6.5111 16.5875 6.60072C16.5648 6.69035 16.5174 6.77175 16.4507 6.83554L12.9108 10.2892C12.8546 10.3446 12.8126 10.4127 12.7882 10.4878C12.7639 10.563 12.7578 10.643 12.7708 10.7209L13.6007 15.6003C13.6182 15.6922 13.6093 15.7873 13.5748 15.8743C13.5404 15.9613 13.482 16.0368 13.4064 16.0916C13.3308 16.1464 13.2412 16.1784 13.1481 16.1839C13.055 16.1893 12.9622 16.168 12.8807 16.1224L8.52076 13.8132C8.44902 13.7785 8.37042 13.7605 8.29078 13.7605C8.21115 13.7605 8.13255 13.7785 8.0608 13.8132L3.70069 16.1123C3.61887 16.1538 3.52732 16.1719 3.43592 16.1646C3.34453 16.1574 3.25683 16.1251 3.18251 16.0713C3.10818 16.0174 3.05013 15.9439 3.01454 15.8591C2.97895 15.7743 2.96721 15.6813 2.98072 15.5902L3.82069 10.7109C3.83636 10.6329 3.83179 10.5522 3.80726 10.4766C3.78273 10.4009 3.73919 10.3329 3.6808 10.2791L0.150768 6.81544C0.0838552 6.75099 0.0365316 6.6688 0.014293 6.57842C-0.00794552 6.48804 -0.00416519 6.39319 0.0251573 6.30487C0.0544798 6.21656 0.10814 6.1384 0.179942 6.07949C0.251745 6.02059 0.338751 5.98339 0.430797 5.97213L5.3108 5.26927C5.389 5.25545 5.46298 5.22385 5.52711 5.17687C5.59125 5.12988 5.64383 5.06885 5.6808 4.9983L7.87074 0.560663C7.91108 0.478027 7.97375 0.408363 8.05153 0.35967C8.1293 0.310978 8.21914 0.285156 8.3108 0.285156C8.40246 0.285156 8.49218 0.310978 8.56996 0.35967C8.64774 0.408363 8.71041 0.478027 8.75074 0.560663L10.9308 4.9983C10.9643 5.07142 11.0158 5.13469 11.0806 5.18214C11.1453 5.22958 11.2212 5.25952 11.3008 5.26927Z" fill="url(#paint0_linear_1259_4708)"/>
<defs>
<linearGradient id="paint0_linear_1259_4708" x1="23102.7" y1="22856.4" x2="23378.3" y2="22856.4" gradientUnits="userSpaceOnUse">
<stop stop-color="#E32068"/>
<stop offset="1" stop-color="#F5003B"/>
</linearGradient>
</defs>
</svg>
